<?xml version="1.0" standalone="no"?>
<!DOCTYPE svg PUBLIC "-//W3C//DTD SVG 20010904//EN"
 "http://www.w3.org/TR/2001/REC-SVG-20010904/DTD/svg10.dtd">
<svg version="1.0" xmlns="http://www.w3.org/2000/svg"
 width="200.000000pt" height="200.000000pt" viewBox="0 0 200.000000 200.000000"
 preserveAspectRatio="xMidYMid meet">
<metadata>
Created by potrace 1.14, written by Peter Selinger 2001-2017
</metadata>
<g transform="translate(0.000000,200.000000) scale(0.100000,-0.100000)"
fill="#000000" stroke="none">
<path d="M246 1855 l-26 -24 0 -494 c0 -472 1 -496 19 -518 l19 -24 299 -5
298 -5 3 -107 3 -107 -53 -3 c-41 -2 -54 -7 -56 -21 -3 -16 14 -17 248 -17
234 0 251 1 248 18 -2 13 -15 18 -56 20 l-53 3 3 107 3 107 298 5 299 5 19 24
c18 22 19 46 19 518 l0 494 -26 24 -27 25 -727 0 -727 0 -27 -25z m1484 -25
c19 -19 20 -33 20 -495 0 -462 -1 -476 -20 -495 -20 -20 -33 -20 -730 -20
-697 0 -710 0 -730 20 -19 19 -20 33 -20 495 0 462 1 476 20 495 20 20 33 20
730 20 697 0 710 0 730 -20z m-620 -1150 l0 -110 -110 0 -110 0 0 110 0 110
110 0 110 0 0 -110z"/>
<path d="M1091 1607 c-5 -12 -56 -141 -115 -287 -70 -174 -102 -268 -96 -274
6 -6 13 -6 19 0 8 8 231 557 231 568 0 2 -7 7 -15 10 -10 4 -19 -2 -24 -17z"/>
<path d="M563 1437 c-90 -50 -163 -96 -163 -103 0 -13 321 -194 345 -194 41 0
1 32 -131 105 -80 44 -146 84 -146 89 0 5 66 46 146 90 134 74 174 107 129
105 -10 0 -91 -41 -180 -92z"/>
<path d="M1240 1518 c0 -7 66 -49 146 -94 80 -44 146 -84 146 -90 0 -5 -66
-45 -146 -89 -132 -73 -172 -105 -131 -105 24 0 345 181 345 194 0 13 -322
196 -345 196 -8 0 -15 -6 -15 -12z"/>
<path d="M1550 420 c0 -5 5 -10 10 -10 6 0 10 5 10 10 0 6 -4 10 -10 10 -5 0
-10 -4 -10 -10z"/>
<path d="M1650 376 c0 -28 -4 -35 -22 -39 l-23 -4 23 -8 c20 -7 22 -14 22 -71
0 -54 3 -65 21 -75 23 -12 89 -4 89 11 0 5 -19 8 -42 7 l-43 -2 -3 63 -3 62
41 0 c22 0 40 5 40 10 0 6 -18 10 -40 10 -39 0 -40 1 -40 35 0 19 -4 35 -10
35 -5 0 -10 -15 -10 -34z"/>
<path d="M1468 373 c-2 -22 -9 -28 -28 -30 -14 0 -33 -1 -42 -2 -9 -1 -24 -8
-32 -17 -18 -18 -21 -69 -5 -79 7 -5 5 -13 -6 -25 -8 -9 -13 -24 -10 -33 4 -8
2 -18 -4 -22 -19 -11 -12 -53 11 -69 42 -30 141 -13 154 27 9 29 -28 57 -75
57 -20 0 -42 4 -50 9 -22 14 -3 31 35 31 56 0 88 45 64 90 -7 13 -7 21 0 25
13 8 13 65 1 65 -5 0 -11 -12 -13 -27z m-27 -53 c12 -7 19 -21 19 -40 0 -24
-5 -31 -27 -36 -49 -13 -82 35 -48 70 19 19 29 20 56 6z m36 -174 c7 -6 9 -17
4 -24 -11 -19 -83 -27 -110 -13 -20 11 -28 41 -14 54 10 10 106 -3 120 -17z"/>
<path d="M240 330 c0 -5 7 -10 15 -10 11 0 15 -17 17 -72 4 -89 22 -96 26 -11
3 58 5 64 32 78 45 23 60 11 60 -50 0 -73 6 -85 44 -84 28 0 29 1 9 9 -20 8
-23 17 -23 60 0 71 -12 90 -58 90 -21 0 -43 -5 -50 -12 -9 -9 -15 -9 -24 0
-15 15 -48 16 -48 2z"/>
<path d="M500 320 c-31 -31 -28 -102 6 -129 32 -25 56 -26 89 -5 l25 16 0 -66
c0 -42 4 -65 10 -61 6 4 10 59 10 133 l0 128 -60 2 c-48 2 -63 -1 -80 -18z
m108 -12 c34 -28 -5 -118 -51 -118 -65 0 -79 111 -17 133 18 6 50 -1 68 -15z"/>
<path d="M670 331 c0 -6 9 -11 20 -11 17 0 19 -8 22 -67 3 -64 4 -68 31 -78
22 -7 35 -6 58 7 16 10 31 13 34 7 4 -5 18 -9 33 -8 26 0 26 1 5 9 -21 8 -23
16 -23 80 0 40 -4 70 -10 70 -5 0 -10 -25 -10 -55 0 -62 -22 -95 -65 -95 -28
0 -33 14 -37 95 -3 46 -5 50 -30 53 -16 2 -28 -1 -28 -7z"/>
<path d="M933 333 c-16 -6 -17 -39 -2 -48 6 -4 13 2 16 13 6 25 27 34 58 26
24 -6 43 -39 30 -52 -3 -4 -21 -5 -40 -3 -47 4 -75 -14 -75 -47 0 -51 35 -65
90 -37 17 9 30 11 30 5 0 -5 15 -10 33 -9 29 0 30 1 10 9 -20 8 -23 17 -23 60
0 76 -11 90 -68 89 -26 0 -53 -3 -59 -6z m102 -92 c7 -13 -43 -51 -67 -51 -21
0 -33 22 -24 45 6 17 81 21 91 6z"/>
<path d="M1100 330 c0 -5 9 -10 20 -10 18 0 20 -7 20 -75 0 -43 4 -75 10 -75
6 0 10 26 10 58 0 62 12 83 56 96 31 9 42 -11 46 -79 3 -59 4 -60 33 -62 27
-2 28 -2 8 7 -20 8 -23 17 -23 68 0 32 -5 63 -12 70 -15 15 -62 16 -88 2 -13
-7 -21 -7 -25 0 -8 13 -55 13 -55 0z"/>
<path d="M1510 330 c0 -5 9 -10 20 -10 18 0 20 -7 20 -75 0 -43 4 -75 10 -75
6 0 10 35 10 85 l0 85 -30 0 c-16 0 -30 -4 -30 -10z"/>
</g>
</svg>
